# xmcd
#
# Track frame offsets:
#	150
#	26825
#	49184
#	65878
#	86753
#	107765
#	126760
#	150831
#	171244
#	197914
#	220272
#	236966
#	257841
#	278747
#	297784
#	321527
#
# Disc length: 4539 seconds
#
# Revision: 1
# Processed by: cddbd v1.5.2PL0 Copyright (c) Steve Scherf et al.
# Submitted via: audiograbber 1.83.01
#
DISCID=f911b910
DTITLE=3 Tenors - SDK9016
DYEAR=1900
DGENRE=Karaoke
TTITLE0=Frangoulis, Mario - Sometimes I Dream (E lucevon le stelle) (w lyrics)
TTITLE1=Groban, Josh - My Confession (w vocals)
TTITLE2=Groban, Josh - You're Still You (w vocals)
TTITLE3=Groban, Josh - Home to Stay (w vocals)
TTITLE4=Bocelli, Andrea - Prayer, The (w vocals)
TTITLE5=Bocelli, Andrea - Time to Say Goodbye (w vocals)
TTITLE6=Bocelli, Andrea - Ave Maria (Schubert) (w vocals)
TTITLE7=Bocelli, Andrea - O Sole Mio (De Capua) (w vocals)
TTITLE8=Frangoulis, Mario - Sometimes I Dream (E lucevon le stelle)
TTITLE9=Groban, Josh - My Confession
TTITLE10=Groban, Josh - You're Still You
TTITLE11=Groban, Josh - Home to Stay
TTITLE12=Bocelli, Andrea - Prayer, The
TTITLE13=Bocelli, Andrea - Time to Say Goodbye
TTITLE14=Bocelli, Andrea - Ave Maria (Schubert)
TTITLE15=Bocelli, Andrea - O Sole Mio (De Capua)
EXTD=
EXTT0=
EXTT1=
EXTT2=
EXTT3=
EXTT4=
EXTT5=
EXTT6=
EXTT7=
EXTT8=
EXTT9=
EXTT10=
EXTT11=
EXTT12=
EXTT13=
EXTT14=
EXTT15=
PLAYORDER=
